<svg id="Ebene_1" data-name="Ebene 1" xmlns="http://www.w3.org/2000/svg" viewBox="0 0 500 500">
  <defs>
    <style>
      .cls-1 {
        fill: #eedbc3;
      }
    </style>
  </defs>
  <title>Zeichenfläche 1</title>
  <path class="cls-1" d="M4.45,229.62c1.21-2.5.37-5.14.47-7.7.76-19.75,8.68-36.73,20.21-52.26,17.42-23.45,40-41,64.85-55.87,37.13-22.21,77.23-36.9,119.38-46.06,47.77-10.38,95.86-13.84,144.26-4.59C377.86,67.78,401,75.48,421,90.55c15,11.32,25.8,25.61,29.66,44.44a50,50,0,0,1,.26,19.87c-.82,4.13-3.88,6.32-7.64,5.74a6.44,6.44,0,0,1-5.51-7.42c2.92-25-10-41.72-29-55-12.78-8.92-27.26-14.24-42.2-18.42-2.83-.8-3.29.89-4.2,2.5-9.53,17-18.56,34.18-29.35,50.39-3.54,5.31-7.3,10.46-12.24,14.6-9.57,8-19.17,5.68-24.22-5.79-4.83-11-4.17-22.23-1.87-33.58,2.43-12,7-23.24,12.23-34.24.24-.51.43-1.06.8-2-9.25-.76-18.21,0-27.15-.18-5.66-.12-8.55,2.23-11.25,7-12.4,22-24.19,44.29-37.31,65.86A142.26,142.26,0,0,1,217.33,165,36,36,0,0,1,209,172.3c-7.5,4.47-15,3-19.69-4.37-5.53-8.57-6.87-18.2-6.26-28.16,1.07-17.48,7.31-33.45,14.57-49.11,1-2.15,2.07-4.27,3.13-6.45-1.12-1.15-2.24-.17-3.22.1-7.44,2-14.84,4.23-22.29,6.21a6.82,6.82,0,0,0-4,3.2c-7.2,10.55-13.77,21.49-20.11,32.57-1.4,2.45-2.73,4.94-4.18,7.36-2.54,4.21-6.08,5.45-9.62,3.45s-4.38-5.78-2-10q6.84-12,13.9-23.84c.74-1.25,2-2.21,2.46-3.69-14.33,4.56-27.51,10.81-40.49,17.51a4.89,4.89,0,0,0-1.65,2c-8.53,15-16.23,30.35-20.13,47.3-1.88,8.16-2.7,16.37,0,24.57,1.63,4.94,2.41,5.2,5.91,1.48,6.46-6.86,11.21-14.93,16-22.94,2.68-4.44,5.16-9,7.83-13.47,2.32-3.89,6-5.14,9.31-3.36,3.54,1.87,4.54,5.89,2.23,10-6.79,12-13.5,24.09-22.11,34.95-2.86,3.62-6,7-10.05,9.3-6.93,4-13.77,2.43-18.21-4.23-4.61-6.91-6-14.75-5.9-22.89.22-14.49,4.7-27.94,10.28-41.1a39.76,39.76,0,0,0,2.4-6.58c-6.31,2.94-11.63,7.11-16.92,11.26-17.63,13.83-33.52,29.24-43.88,49.5-5.69,11.13-8.88,22.84-7.78,35.53q2.36,27.09,27.58,36.89c15.36,6,31.49,6.48,47.69,6.06,22.3-.58,44.3-3.91,66.19-7.91,22.92-4.19,45.65-9.34,68.37-14.51a11.2,11.2,0,0,0,6.9-4.21,98.21,98.21,0,0,1,23.09-21.28c2-1.33,2.52-2.5,2-5-2.51-12,3.29-22.67,14.66-27.22a333.68,333.68,0,0,1,93.56-22.56c12.43-1.16,22.54,5.73,25.66,17.77.59,2.25,1.65,2.76,3.71,3.38,5.89,1.75,10.58-.08,14.94-3.85,3.58-3.09,7.29-6,10.9-9.09s7.52-3.18,10.2-.18,2.29,6.59-1,9.87c-1.56,1.57-3.27,3-4.95,4.45s-3.38,2.81-5.07,4.22c.63,1.31,1.95,1.37,3,1.81a112.59,112.59,0,0,1,43.72,32.73c8.84,10.67,10.21,24,3.75,35.17-6.57,11.4-18.49,16.91-32.16,14.64a216.4,216.4,0,0,0-40.66-3.1c-2.82.06-4.67.53-6.18,3.58-4.23,8.55-12.06,11.76-21.11,12.63-2.5.24-5,.59-7.51.9,0,1.71,1.33,1.53,2.08,1.9a113.63,113.63,0,0,1,39.32,31.36c8.15,10.12,9.36,23.21,3.24,34.09-6.32,11.22-18,17-31.16,15-14.22-2.19-28.45-3.71-42.86-3.18-2.41.09-3.61.74-4.73,2.9-4.05,7.84-10.63,12-19.43,12.93a203.58,203.58,0,0,0-50.07,12.07c-8.28,3.15-16,2.41-23.17-2.77-2-1.46-3.49-1.54-5.54-.34a57.14,57.14,0,0,1-7.59,3.69c-3.53,1.4-6.55.31-8.39-2.92s-.89-6.4,2-8.64a17.56,17.56,0,0,1,5.14-2.61c4.06-1.32,4.8-3.11,2.76-7.24-7.69-15.53-15-31.25-22.26-47-1.16-2.5-2-2.63-4.08-1.11-20.76,15.28-33.5,35.65-38.51,60.85-1.42,7.12,1.23,12.94,7.18,16.92s12.28,3.94,18.42.14c2-1.24,3.78-2.87,5.82-4.06,3.26-1.9,6.42-1.41,8.71,1.59s2,6.24-.76,8.83c-19.45,18.2-44.26,8.89-51.26-9.92a29.23,29.23,0,0,1-1.2-16.62c6.11-28.74,20.62-52.11,44.81-69.12,2.38-1.67,3.57-3,2.79-6.35-2.48-10.89,3.44-21.65,13.76-26,1.81-.76,3.37-1.4,4-3.69a107.58,107.58,0,0,1,7.41-19.5c-1.38-1-2.63-.11-3.81.15-29.12,6.45-58.26,12.84-87.87,16.7-24.14,3.14-48.34,5.1-72.57.8-9.84-1.75-19.27-4.8-27.84-10.09a50.14,50.14,0,0,1-18.82-20.24c-.61-1.19-.61-3-2.39-3.42ZM256,388.75c12.52-5.07,26-8.44,39.71-11.23,9.12-1.86,9.13-1.9,5.21-10.45-16.58-36.13-45.62-56.39-83.41-65.59-2.86-.7-4.49.31-5.84,2.51a9.93,9.93,0,0,0-.73,9.76c1,2.15,2,4.27,3.06,6.41q14.79,31.32,29.6,62.62C246.14,388.05,250.48,390.1,256,388.75Zm95.54-106,0-.14c2-.37,4.07-.77,6.12-1.11,10.57-1.74,10.6-1.75,6-11.64-16.47-35.16-44.92-55.11-81.8-64.28-4.78-1.19-7.47.68-8.43,5.55a10.67,10.67,0,0,0,1,6.88c6.24,13.09,12.34,26.24,18.56,39.34,4,8.36,4,8.33,13.11,7.59,11.48-.95,21.19,5.3,24.81,16,1.71,5.05,3.36,6,8.59,4.74C343.49,284.73,347.52,283.74,351.56,282.77Zm-51.79-86.2c39.17,15.06,67.23,40.1,80.77,79.81,3.36-2.67,3.74-6,3.63-9.46q-1.19-37.29-2.41-74.57c-.24-7-5.05-11.08-12.12-10.3-6.63.73-13.27,1.45-19.86,2.44A285.34,285.34,0,0,0,299.77,196.57Zm163.9,49.55a15.24,15.24,0,0,0-3.07-6.34c-16-20-36.53-32.52-62-36.56-2.27-.36-3.23-.13-3.14,2.45.69,18.34,1.34,36.69,1.84,55,.06,2,.57,2.57,2.43,2.49,15.44-.61,30.68,1.24,45.94,3.39C457.18,268.21,466.34,257.38,463.67,246.12ZM388,362.63a16.6,16.6,0,0,0,9.58-26.34c-15.82-20.47-36.68-32.76-62.28-36.91-2.35-.38-3,.13-2.93,2.64q1,27.3,1.76,54.62c.06,2.49.78,2.87,3.08,2.79a208,208,0,0,1,43.29,3.22A17.1,17.1,0,0,0,388,362.63Zm-70.57,10c3.65-3,3.72-6.54,3.6-10.12q-1.17-36.17-2.41-72.34c-.33-9.26-4.42-12.72-13.64-11.78A320,320,0,0,0,256.4,287c-6.37,1.66-12.8,3.13-19.35,5.95C275.7,307.82,303.74,332.75,317.42,372.61Zm-60.68-299c-12.83,1-24.88,3.41-37,5.53a3.12,3.12,0,0,0-2.2,2c-9.36,17.39-17.88,35.1-20.7,54.95-1.1,7.76-.71,15.35,2.44,22.66,1.07,2.48,2.32,3.06,4.53,1A63.91,63.91,0,0,0,213,148.92c11-15.72,19.78-32.71,29.18-49.36C247,91.08,251.72,82.56,256.74,73.58Zm93.76,2.6a256.43,256.43,0,0,0-25.86-3.72c-2-.2-2.6.62-3.31,2.05-5.79,11.56-10.86,23.39-13.6,36.09a51.24,51.24,0,0,0-.81,19.85c.48,2.75,1,6.51,3.36,7.25s4.22-2.69,5.81-4.72C329.78,115.49,339.2,95.42,350.5,76.18ZM230.22,280.72A377.46,377.46,0,0,1,283,267.63c-5-10.49-9.9-20.58-14.53-30.8-1.2-2.67-2-2.92-4.33-1.2a98.17,98.17,0,0,0-19.71,19A92.17,92.17,0,0,0,230.22,280.72Z"/>
</svg>
