<svg id="Ebene_1" data-name="Ebene 1" xmlns="http://www.w3.org/2000/svg" viewBox="0 0 500 500">
  <defs>
    <style>
      .cls-1 {
        fill: #eedbc3;
        stroke: #eedbc3;
        stroke-miterlimit: 10;
      }
    </style>
  </defs>
  <title>Zeichenfläche 1</title>
  <path class="cls-1" d="M228.57,87.15c1.81,1.29,3.52,2.46,5.17,3.69a81.39,81.39,0,0,1,14.43,13.94c7.65,9.43,14.74,19.26,21.42,29.4a277.12,277.12,0,0,1,18.93,33.43,196.86,196.86,0,0,1,14.07,38.48,144.09,144.09,0,0,1,3.06,17.51,163.94,163.94,0,0,1,.68,18.67c0,1.45,0,1.47,1.39,1a30.89,30.89,0,0,0,11.67-6.87,72.63,72.63,0,0,0,14.84-20c5.24-9.92,8.46-20.54,11-31.4q2.55-10.76,4-21.7c.57-4.27,1-8.55,1.3-12.85a194.38,194.38,0,0,0,.33-22.64c-.31-8.16-1-16.3-3.26-24.22a41.85,41.85,0,0,0-8.89-16.77C332.7,80,325,76,316.27,73.81a73.12,73.12,0,0,0-12.41-1.73A110.2,110.2,0,0,0,291.27,72a148.13,148.13,0,0,0-21.79,2.72,12.85,12.85,0,0,1-5.35.09,5.16,5.16,0,0,1-4-4.55,4.73,4.73,0,0,1,2-5.13,17.6,17.6,0,0,1,6.75-2.27c4.62-.85,9.26-1.56,13.93-2.08,2.85-.32,5.72-.45,8.59-.64a86.93,86.93,0,0,1,12.81.12c10.2.82,20.12,2.82,29.32,7.57a47.07,47.07,0,0,1,19.95,19.25c.31.56.64,1.11.92,1.68a4.36,4.36,0,0,0,3.35,2.42,157,157,0,0,1,24.15,6.28,90.61,90.61,0,0,1,24.83,13,43.14,43.14,0,0,1,13.41,16.15,10.76,10.76,0,0,0,3.14,3.7,157.57,157.57,0,0,1,15.48,14.65,131,131,0,0,1,13.6,17.29c3.61,5.51,7.18,11.07,9.1,17.46,2.25,7.51,1.84,14.75-2.49,21.49-2.68,4.17-6.54,7.05-10.81,9.43-7.44,4.15-15.47,6.48-23.81,8q-8.72,1.56-17.52,2.31a210.69,210.69,0,0,1-23.84.45c-2.62-.07-5.17-.42-7.43,1.33-1.61,1.25-3.21,2.52-4.91,3.63-5.51,3.63-11.08,7.15-17.64,8.62a37.77,37.77,0,0,1-13.45.31,4.82,4.82,0,0,0-4.85,1.89C330,243.22,324.47,248.49,317.5,252a39,39,0,0,1-11.64,3.88,3.19,3.19,0,0,0-2.86,2.45,72,72,0,0,1-4.82,11.72,57.29,57.29,0,0,1-31,27.86,67.71,67.71,0,0,1-7.5,2.45,3.09,3.09,0,0,0-2.58,3,41.28,41.28,0,0,1-9.65,21.41,64.79,64.79,0,0,1-9.16,8.75,5.06,5.06,0,0,0-2,5.31c1.16,5,0,9.66-2,14.19-1.78,4.09-3.23,8.34-5.52,12.2a54.17,54.17,0,0,1-5.56,7.78,10.1,10.1,0,0,0-2.57,6.92c0,3,.15,6,.2,9,.09,5.35-.12,10.71-.49,16a129.83,129.83,0,0,1-6.21,33c-2.34,6.85-5.63,13.15-11.11,18.07a22.08,22.08,0,0,1-12.21,5.58c-6.15.8-11.76-1.07-17.25-3.44a76.24,76.24,0,0,1-21.41-14.07c-6.26-5.73-12-12-17.73-18.2-1.63-1.75-3.28-3.49-4.79-5.35S126,418.1,124.08,417A46.27,46.27,0,0,1,110,404.16c-7.71-10.57-12.45-22.5-15.79-35.05-1.07-4.05-1.89-8.14-2.65-12.26A6.73,6.73,0,0,0,88,352.06,50,50,0,0,1,77,344a51.41,51.41,0,0,1-13.73-24.55,91.52,91.52,0,0,1-2.46-16.88,108.77,108.77,0,0,1,.11-15.32,175.76,175.76,0,0,1,3.33-23.16A223.27,223.27,0,0,1,71.59,236,151.41,151.41,0,0,1,81,214.12a7.06,7.06,0,0,0,.69-5.16,57.69,57.69,0,0,1-1-19.26C82,178.77,85.81,168.76,91,159.18a176.73,176.73,0,0,1,10.19-16.64A174.41,174.41,0,0,1,116,123.9a161.17,161.17,0,0,1,32.41-27.33,146.33,146.33,0,0,1,30-15.09A45.66,45.66,0,0,1,192.47,79c3.32-.1,6.63,0,9.93.14a45.59,45.59,0,0,1,9.43,1.46,6.88,6.88,0,0,0,5.18-.79,131,131,0,0,1,21.93-9.22,8.09,8.09,0,0,1,5.28-.21A5.4,5.4,0,0,1,247.73,75c.4,2.27-.75,3.94-2.51,5.2-2,1.44-4.37,2.11-6.64,3C235.28,84.51,232,85.81,228.57,87.15ZM241,290.85a52.08,52.08,0,0,0,18.52-2.43,47.46,47.46,0,0,0,27.93-23c4.45-8.1,6.39-16.9,6.93-26a90.86,90.86,0,0,0-.94-19.7,163.77,163.77,0,0,0-5.84-24.13A199.79,199.79,0,0,0,272,160.1c-6.2-11.2-13.44-21.71-20.83-32.13a209.74,209.74,0,0,0-13.53-17.21A68,68,0,0,0,225.3,99.18a52.77,52.77,0,0,0-25.19-9,42.39,42.39,0,0,0-16.74,2.18,113.86,113.86,0,0,0-34.5,18.11,198.08,198.08,0,0,0-24.15,21.43,150.81,150.81,0,0,0-11.41,13.22A115.94,115.94,0,0,0,96.7,174.65c-3.56,9.51-5.48,19.23-4,29.42a42.93,42.93,0,0,0,8.08,19.34,98,98,0,0,0,12.29,13.22c1.57,1.48,3.2,2.89,4.86,4.26,3.73,3.08,7.68,5.85,11.6,8.66a252.81,252.81,0,0,0,30.69,19.07A229.23,229.23,0,0,0,197,283.94,138,138,0,0,0,241,290.85ZM72.32,296.36c-.08,2.28.15,4.55.23,6.82A63.78,63.78,0,0,0,74,315,39.89,39.89,0,0,0,85,335.5a41.27,41.27,0,0,0,15.59,9.34A78.21,78.21,0,0,0,115,348a133.24,133.24,0,0,0,16.2,1.37,190.9,190.9,0,0,0,26.18-1.17q7.65-.9,15.25-2.11c2.26-.36,4.51-1.08,6.86-.57a5,5,0,0,1,4,3.4c.7,2.06.69,4-.85,5.71a8.21,8.21,0,0,1-5,2.35c-6.9,1.23-13.83,2.25-20.81,3-5.52.56-11.05.87-16.59,1.09a156.93,156.93,0,0,1-17.48-.48c-3.29-.24-6.59-.57-9.85-1.1-2.36-.38-4.72-.77-7.09-1-1.57-.16-2,.35-1.63,1.91a121.68,121.68,0,0,0,7.61,24c3.09,6.9,7,13.28,12.61,18.44,6.89,6.3,15,8.42,24,6.68a79.88,79.88,0,0,0,18.82-6.55A131,131,0,0,0,187,391.34c9-6.31,17.52-13.09,24.67-21.48A66.07,66.07,0,0,0,222,354.15,30.12,30.12,0,0,0,224.8,343c0-1-.15-1.25-1.12-.77-2.33,1.13-4.68,2.23-7.05,3.28a90.52,90.52,0,0,1-13.22,4.92,5.29,5.29,0,0,1-6.09-2.67c-1.41-2.6-1.11-5,.82-6.9a10.15,10.15,0,0,1,4-2.17,165.8,165.8,0,0,0,21.33-9.12,46.89,46.89,0,0,0,18.17-16.79,29,29,0,0,0,3.49-8.1c.34-1.33-.08-1.86-1.47-1.87a23.77,23.77,0,0,0-2.39.05,63.42,63.42,0,0,1-12.55-.36c-4.43-.44-8.82-1.25-13.21-2a168,168,0,0,1-32.24-9.19c-8.72-3.48-17.06-7.79-25.52-11.83A237.34,237.34,0,0,1,124,260.06a176.47,176.47,0,0,1-21-17.14A123.47,123.47,0,0,1,88.6,226.68c-.18-.24-.25-.66-.67-.57s-.3.45-.39.69C81.75,242.14,76.72,257.7,74.18,274A158.49,158.49,0,0,0,72.32,296.36ZM412,142.53a15.11,15.11,0,0,0-.34-4.13,28.87,28.87,0,0,0-7.86-15.05,48.55,48.55,0,0,0-13-9.47c-8.91-4.75-18.5-7.57-28.27-9.86-2-.48-2.72.24-2.27,2.28a109,109,0,0,1,2.43,21c.18,7.39.13,14.78-.37,22.16-.35,5.21-.81,10.41-1.45,15.59-.76,6.17-1.84,12.28-3.18,18.35a194.2,194.2,0,0,1-13.18,39.27c-.26.57-.95,1.22-.58,1.72s1.35.25,2,.17A37.81,37.81,0,0,0,364.45,217a126.33,126.33,0,0,0,18.24-16.74,128.74,128.74,0,0,0,10.66-13.52A140.62,140.62,0,0,0,408.8,157C410.54,152.39,412,147.77,412,142.53Zm-22.25,67.14c.61,0,.92.06,1.23.06,5.79,0,11.57-.25,17.35-.71A115.29,115.29,0,0,0,425,206.58c6.51-1.49,12.88-3.41,18.69-6.83,3.39-2,6.15-4.56,7.13-8.59a15.4,15.4,0,0,0-.74-8.71c-2.14-6.31-5.69-11.85-9.62-17.17-2.84-3.85-6-7.45-9.16-11.05-1.89-2.15-3.89-4.22-5.71-6.45-.4-.49-.89-1.1-1.56-.93s-.56,1-.67,1.55a102.27,102.27,0,0,1-11.71,29.71,241.72,241.72,0,0,1-17.56,25.81C392.66,205.76,391.29,207.61,389.74,209.67ZM209.14,394.51c0-1.27,0-2.55,0-3.83,0-.28-.13-.55-.13-.83,0-.94-.26-1-1-.41a274.15,274.15,0,0,1-23.26,16.81,123.06,123.06,0,0,1-20.16,10.45A88,88,0,0,1,148,421.61c-.85.15-1,.43-.44,1.2a74.62,74.62,0,0,0,6.15,7,95.35,95.35,0,0,0,9.59,8.47,70.32,70.32,0,0,0,17.09,10.21,18.34,18.34,0,0,0,9.49,1.36c3.65-.55,6.27-2.79,8.31-5.76,3.43-5,5.37-10.58,6.92-16.34a111.36,111.36,0,0,0,3.18-19.3C208.68,403.82,209.14,399.18,209.14,394.51Z"/>
</svg>
