<svg id="Ebene_1" data-name="Ebene 1" xmlns="http://www.w3.org/2000/svg" viewBox="0 0 300 300">
  <defs>
    <style>
      .cls-1 {
        fill: #407f59;
      }
    </style>
  </defs>
  <title>Zeichenfläche 1</title>
  <path class="cls-1" d="M115,74.16v2.59l31.2,7a3.16,3.16,0,0,1-1.37,6.16L115,83.22v23.51l31.2,7a3.16,3.16,0,0,1-1.37,6.16L115,113.2v23.51l31.2,6.94a3.16,3.16,0,0,1-1.37,6.17L115,143.18v26.67l31.2,6.94a3.16,3.16,0,0,1-1.37,6.16L115,176.31v24.31l31.2,6.94a3.16,3.16,0,0,1-1.37,6.16L115,207.08V228h.09a35.49,35.49,0,0,0,70.82,0H186V74.16a35.5,35.5,0,0,0-71,0Z"/>
</svg>
